<svg xmlns="http://www.w3.org/2000/svg" width="24" height="24" viewBox="0 0 24 24"><path d="m4.155 5.502-.1.044c-.45.199-.866.383-1.184.689a2.5 2.5 0 0 0-.623.957c-.15.416-.149.87-.148 1.362v6.992c0 .457-.002.893.142 1.293a2.4 2.4 0 0 0 .598.92c.306.293.705.47 1.124.654l.096.043 6.353 2.823c.402.18.74.33 1.104.392a2.9 2.9 0 0 0 .966 0c.364-.062.702-.213 1.104-.392l6.353-2.823.097-.043c.418-.185.817-.361 1.123-.655a2.4 2.4 0 0 0 .598-.92c.144-.399.143-.835.142-1.293v-6.99c.001-.491.002-.946-.148-1.362a2.5 2.5 0 0 0-.622-.957c-.32-.306-.735-.49-1.184-.689l-.1-.044-6.259-2.782c-.402-.179-.74-.33-1.104-.39a2.9 2.9 0 0 0-.966 0c-.363.06-.702.211-1.104.39L4.155 5.502Zm8.028-1.398c.11.019.23.065.751.296l5.85 2.6L16.5 8.015 9.716 5l1.35-.6c.52-.231.64-.277.75-.296a1.1 1.1 0 0 1 .367 0ZM20.1 8.385l.001.279v6.776c0 .634-.013.725-.035.788a.599.599 0 0 1-.15.23c-.048.047-.127.096-.706.353l-6.31 2.804v-8.052c.219-.075.441-.174.687-.284l3.276-1.455.006-.003 3.23-1.436Zm-9 3.178v8.052l-6.31-2.804c-.578-.257-.657-.306-.705-.353a.599.599 0 0 1-.15-.23c-.022-.063-.035-.154-.035-.788V8.664l.001-.279 6.512 2.894c.246.11.468.209.687.284ZM5.216 7 7.5 5.985 14.284 9l-1.35.6c-.52.231-.64.277-.75.296a1.1 1.1 0 0 1-.367 0c-.11-.019-.23-.065-.751-.296L5.216 7Z"/></svg>